<?xml version="1.0" encoding="UTF-8" standalone="no"?>
<svg
   xmlns:dc="http://purl.org/dc/elements/1.1/"
   xmlns:cc="http://creativecommons.org/ns#"
   xmlns:rdf="http://www.w3.org/1999/02/22-rdf-syntax-ns#"
   xmlns:svg="http://www.w3.org/2000/svg"
   xmlns="http://www.w3.org/2000/svg"
   xmlns:sodipodi="http://sodipodi.sourceforge.net/DTD/sodipodi-0.dtd"
   xmlns:inkscape="http://www.inkscape.org/namespaces/inkscape"
   version="1.1"
   id="svg2"
   xml:space="preserve"
   width="666"
   height="300"
   viewBox="0 0 666 300"
   sodipodi:docname="animation-img.svg"
   inkscape:version="1.0.1 (3bc2e813f5, 2020-09-07)"><metadata
     id="metadata8"><rdf:RDF><cc:Work
         rdf:about=""><dc:format>image/svg+xml</dc:format><dc:type
           rdf:resource="http://purl.org/dc/dcmitype/StillImage" /><dc:title></dc:title></cc:Work></rdf:RDF></metadata><defs
     id="defs6" /><sodipodi:namedview
     pagecolor="#ffffff"
     bordercolor="#666666"
     borderopacity="1"
     objecttolerance="10"
     gridtolerance="10"
     guidetolerance="10"
     inkscape:pageopacity="0"
     inkscape:pageshadow="2"
     inkscape:window-width="1920"
     inkscape:window-height="1027"
     id="namedview4"
     inkscape:document-rotation="0"
     showgrid="false"
     inkscape:zoom="1.1295"
     inkscape:cx="333.33334"
     inkscape:cy="319.92024"
     inkscape:window-x="-8"
     inkscape:window-y="-8"
     inkscape:window-maximized="1"
     inkscape:current-layer="g12" /><g
     id="g10"
     inkscape:groupmode="layer"
     inkscape:label="ink_ext_XXXXXX"
     transform="matrix(1.3333333,0,0,-1.3333333,0,666.66667)"><g
       id="g12"
       transform="matrix(0.1,0,0,0.1,-0.66401084,275.56443)"><path
         d="M 5000,2231.5431 V 0 H 0 v 2231.5431 h 5000"
         style="fill:#ffffff;fill-opacity:1;fill-rule:nonzero;stroke:none;stroke-width:0.668063"
         id="path14" /><path
         d="m 916.469,134.1 c 0,874.56 708.971,1583.53 1583.531,1583.53 874.56,0 1583.53,-708.97 1583.53,-1583.53 H 916.469"
         style="fill:#f7941e;fill-opacity:1;fill-rule:nonzero;stroke:none"
         id="path16" /><path
         d="m 1381.32,653.95 h -157.7 V 153.42 h 157.7 v 500.53"
         style="fill:#5d5d5d;fill-opacity:1;fill-rule:nonzero;stroke:none"
         id="path18" /><path
         d="m 1346.02,748.82 h -87.09 V 248.28 h 87.09 v 500.54"
         style="fill:#5d5d5d;fill-opacity:1;fill-rule:nonzero;stroke:none"
         id="path20" /><path
         d="m 1320,826.52 h -35.06 V 325.98 H 1320 v 500.54"
         style="fill:#5d5d5d;fill-opacity:1;fill-rule:nonzero;stroke:none"
         id="path22" /><path
         d="m 4115.08,572.76 h -63.1 V 234.61 h 63.1 v 338.15"
         style="fill:#5d5d5d;fill-opacity:1;fill-rule:nonzero;stroke:none"
         id="path24" /><path
         d="M 4490,403.68 H 4366.98 V 149.34 H 4490 v 254.34"
         style="fill:#5d5d5d;fill-opacity:1;fill-rule:nonzero;stroke:none"
         id="path26" /><path
         d="m 4470,427.08 h -83.02 V 172.74 H 4470 v 254.34"
         style="fill:#5d5d5d;fill-opacity:1;fill-rule:nonzero;stroke:none"
         id="path28" /><path
         d="M 4693.33,320.08 H 4498.65 V 149.34 h 194.68 v 170.74"
         style="fill:#5d5d5d;fill-opacity:1;fill-rule:nonzero;stroke:none"
         id="path30" /><path
         d="M 4661.68,335.79 H 4530.3 V 165.05 h 131.38 v 170.74"
         style="fill:#5d5d5d;fill-opacity:1;fill-rule:nonzero;stroke:none"
         id="path32" /><path
         d="M 863.543,339.56 H 705.848 V 153.42 h 157.695 v 186.14"
         style="fill:#5d5d5d;fill-opacity:1;fill-rule:nonzero;stroke:none"
         id="path34" /><path
         d="M 639.91,320.28 H 561.063 V 153.42 h 78.847 v 166.86"
         style="fill:#5d5d5d;fill-opacity:1;fill-rule:nonzero;stroke:none"
         id="path36" /><path
         d="m 586.727,145.84 v 78.85 H 480.91 v -78.85 h 105.817"
         style="fill:#5d5d5d;fill-opacity:1;fill-rule:nonzero;stroke:none"
         id="path38" /><path
         d="M 705.848,259.23 H 627.004 V 153.42 h 78.844 v 105.81"
         style="fill:#5d5d5d;fill-opacity:1;fill-rule:nonzero;stroke:none"
         id="path40" /><path
         d="m 4381.37,287.87 -56.01,44.25 -56.02,-44.25 V 164.45 h 112.03 v 123.42"
         style="fill:#5d5d5d;fill-opacity:1;fill-rule:nonzero;stroke:none"
         id="path42" /><path
         d="m 4652.01,436.66 -56.02,44.25 -56.01,-44.25 V 313.24 h 112.03 v 123.42"
         style="fill:#5d5d5d;fill-opacity:1;fill-rule:nonzero;stroke:none"
         id="path44" /><path
         d="M 1157.93,320.08 H 963.242 V 149.34 h 194.688 v 170.74"
         style="fill:#5d5d5d;fill-opacity:1;fill-rule:nonzero;stroke:none"
         id="path46" /><path
         d="M 1126.27,335.79 H 994.895 V 165.05 h 131.375 v 170.74"
         style="fill:#5d5d5d;fill-opacity:1;fill-rule:nonzero;stroke:none"
         id="path48" /><path
         d="m 1116.6,436.66 -56.02,44.25 -56.01,-44.25 V 313.24 h 112.03 v 123.42"
         style="fill:#5d5d5d;fill-opacity:1;fill-rule:nonzero;stroke:none"
         id="path50" /><path
         d="m 4269.34,422.27 -122.39,96.69 -122.39,-96.69 V 152.62 h 244.78 v 269.65"
         style="fill:#5d5d5d;fill-opacity:1;fill-rule:nonzero;stroke:none"
         id="path52" /><path
         d="m 4528.04,194.11 h -713.65 v -44.77 h 713.65 v 44.77"
         style="fill:#5d5d5d;fill-opacity:1;fill-rule:nonzero;stroke:none"
         id="path54" /><path
         d="M 3956.67,226.9 H 2654.55 v -64.15 h 1302.12 v 64.15"
         style="fill:#5d5d5d;fill-opacity:1;fill-rule:nonzero;stroke:none"
         id="path56" /><path
         d="M 1119.76,243.16 H 666.426 v -89.53 h 453.334 v 89.53"
         style="fill:#5d5d5d;fill-opacity:1;fill-rule:nonzero;stroke:none"
         id="path58" /><path
         d="M 2367.59,230.82 H 1119.76 v -91.11 h 1247.83 v 91.11"
         style="fill:#5d5d5d;fill-opacity:1;fill-rule:nonzero;stroke:none"
         id="path60" /><path
         d="M 4760.29,134.1 H 220.285 v 38.64 H 4760.29 V 134.1"
         style="fill:#5d5d5d;fill-opacity:1;fill-rule:nonzero;stroke:none"
         id="path62" /><g
         id="g64"
         transform="scale(10)" /><path
         d="m 920.43,982.01 v 57.76 h -19.785 l -5.063,170.62 h -4.98 l -5.059,-170.62 h -19.859 v -57.76 c -25.149,-10.65 -42.743,-35.57 -42.743,-64.64 0,-34.06 24.239,-62.45 56.485,-68.79 V 827.36 H 861 v -17.9 h 11.324 l -18.422,-646.6 h 78.379 l -18.422,646.6 h 11.325 v 17.9 h -18.422 v 21.22 c 32.242,6.34 56.48,34.73 56.48,68.79 0,29.07 -17.594,53.99 -42.812,64.64"
         style="fill:#5d5d5d;fill-opacity:1;fill-rule:nonzero;stroke:none"
         id="path70" /><path
         d="m 1886.33,704.81 c 0.66,3.95 1.49,7.38 2.29,10.43 0.04,0.15 0.2,0.24 0.35,0.2 l 14.62,-3.79 c 0.17,-0.04 0.26,-0.22 0.2,-0.38 -3.23,-8.1 -5.05,-16.91 -5.05,-26.16 0,-4.74 0.48,-9.36 1.37,-13.84 0.03,-0.18 -0.1,-0.34 -0.28,-0.34 h -21.6 c -0.21,0 -0.35,0.21 -0.25,0.4 4.33,8.43 6.36,21.45 8.35,33.48 z m 154.13,6.84 14.62,3.79 c 0.16,0.04 0.32,-0.05 0.36,-0.2 0.8,-3.05 1.63,-6.48 2.28,-10.43 2,-12.03 4.03,-25.05 8.36,-33.48 0.1,-0.19 -0.04,-0.4 -0.26,-0.4 h -21.59 c -0.18,0 -0.32,0.16 -0.28,0.34 0.88,4.48 1.36,9.1 1.36,13.84 0,9.25 -1.81,18.06 -5.04,26.16 -0.06,0.16 0.03,0.34 0.19,0.38 z M 2465,184.49 l -0.77,228.28 c 0,0.16 0.13,0.29 0.29,0.29 h 18.55 c 0.17,0 0.3,0.13 0.3,0.29 v 15.48 c 0,0.16 -0.13,0.29 -0.3,0.29 h -17.6 c -0.16,0 -0.29,0.13 -0.29,0.29 v 42.87 c 0,0.16 0.13,0.29 0.29,0.29 h 17.6 c 0.17,0 0.3,0.13 0.3,0.3 v 68.11 h -32.9 v 54.83 h 16.16 v 25.41 h -16.16 v 9.47 h 31.24 v 11.87 c 0,0.16 -0.13,0.29 -0.29,0.29 h -324.83 c -0.16,0 -0.29,0.13 -0.29,0.29 v 27.5 c 0,0.16 -0.13,0.29 -0.29,0.29 -13.55,0.05 -27.1,0 -40.65,0 -6.16,0 -12.74,-0.66 -18.87,0 -4.86,0.52 -9.18,0.76 -10.72,6.15 -1.79,6.26 4.27,9.18 5.88,14.38 1.55,5.13 -6.39,14.44 -1.94,18.41 4.31,3.84 13.09,-4.78 15.01,-7.98 2.59,-4.3 2.06,-10.38 2.9,-15.17 0.97,-5.49 -4.85,-9.35 -2.58,-12.9 2.26,-3.56 7.75,3.22 9.36,15.49 0.71,5.4 -0.89,10.11 -1.58,15.35 -0.58,4.43 0.87,6.95 0.61,10.64 5.83,0.5 11.46,-0.51 14.9,-5.85 2.47,-3.84 -0.37,-12.15 8.05,-9.62 0.8,5.91 -1.36,11.76 -1.49,17.72 -7.21,1.42 -14.61,2.81 -21.68,4.68 6.81,12.77 -5.93,15.45 -5.91,26.83 0.01,3.23 7.26,-0.66 11.15,3.7 8.77,9.89 -9.62,16.54 -15.22,18.72 -2.96,1.16 -3.3,1.66 -5.55,3 -2.5,1.52 -1.01,4.23 -4.95,3.5 -2.28,-0.42 -5.74,-9.8 -6.59,-11.58 -3.54,-7.5 -6.68,-15.18 -9.84,-22.84 -3.39,-8.24 -14.53,-0.97 -20.81,-7.75 -3.7,-3.97 -3.2,-8.32 -1.63,-14.52 0.04,-0.15 -0.05,-0.32 -0.21,-0.36 l -15.67,-4.07 c -0.13,-0.03 -0.26,0.03 -0.32,0.15 -11.02,21.77 -32.89,37.02 -58.51,38.7 -0.16,0.01 -0.27,-5.85 -0.27,-5.7 v 18.25 c 0,0.12 0.09,0.23 0.21,0.26 8.37,2.08 14.58,9.59 14.58,18.59 0,9.01 -6.21,16.52 -14.58,18.6 -0.12,0.03 -0.21,0.13 -0.21,0.26 v 8.04 c 0,0.13 0.09,0.24 0.22,0.27 1.85,0.39 3.63,1.14 5.06,2.57 l 30.4,30.39 c 4.3,4.31 3.93,11.53 -1.12,15.34 -4.16,3.12 -10.12,2.15 -13.79,-1.53 l -24.97,-24.97 c -0.12,-0.12 -0.3,-0.12 -0.42,0 l -2.23,2.23 -2.24,-2.23 c -0.11,-0.12 -0.3,-0.12 -0.41,0 l -24.97,24.97 c -3.67,3.68 -9.64,4.65 -13.79,1.53 -5.05,-3.81 -5.43,-11.03 -1.12,-15.34 l 30.39,-30.39 c 1.43,-1.43 3.22,-2.18 5.06,-2.57 0.14,-0.03 0.23,-0.14 0.23,-0.27 v -8.04 c 0,-0.13 -0.09,-0.23 -0.21,-0.26 -8.38,-2.08 -14.59,-9.59 -14.59,-18.6 0,-9 6.21,-16.51 14.59,-18.59 0.12,-0.03 0.21,-0.14 0.21,-0.26 v -18.25 c 0,-0.15 -0.12,5.71 -0.27,5.7 -25.62,-1.68 -47.49,-16.93 -58.51,-38.7 -0.06,-0.12 -0.19,-0.18 -0.32,-0.15 l -15.68,4.07 c -0.15,0.04 -0.24,0.21 -0.2,0.36 1.57,6.2 2.07,10.55 -1.63,14.52 -6.28,6.78 -17.43,-0.49 -20.82,7.75 -3.15,7.66 -6.29,15.34 -9.84,22.84 -0.84,1.78 -4.31,11.16 -6.58,11.58 -3.94,0.73 -2.45,-1.98 -4.96,-3.5 -2.24,-1.34 -2.59,-1.84 -5.54,-3 -5.6,-2.18 -23.99,-8.83 -15.22,-18.72 3.89,-4.36 11.14,-0.47 11.14,-3.7 0.03,-11.38 -12.71,-14.06 -5.91,-26.83 -7.06,-1.87 -14.46,-3.26 -21.67,-4.68 -0.13,-5.96 -2.29,-11.81 -1.49,-17.72 8.42,-2.53 5.58,5.78 8.05,9.62 3.44,5.34 9.07,6.35 14.9,5.85 -0.26,-3.69 1.19,-6.21 0.61,-10.64 -0.69,-5.24 -2.29,-9.95 -1.58,-15.35 1.6,-12.27 7.09,-19.05 9.36,-15.49 2.26,3.55 -3.55,7.41 -2.58,12.9 0.84,4.79 0.3,10.87 2.89,15.17 1.93,3.2 10.71,11.82 15.01,7.98 4.46,-3.97 -3.48,-13.28 -1.93,-18.41 1.61,-5.2 7.67,-8.12 5.88,-14.38 -1.54,-5.39 -5.87,-5.63 -10.72,-6.15 -6.13,-0.66 -12.71,0 -18.87,0 -13.55,0 -27.1,0.05 -40.65,0 -0.16,0 -0.29,-0.13 -0.29,-0.29 v -27.5 c 0,-0.16 -0.14,-0.29 -0.3,-0.29 h -324.82 c -0.16,0 -0.29,-0.13 -0.29,-0.29 v -11.87 h 31.23 v -9.47 h -16.15 v -25.41 h 16.15 v -54.83 h -32.89 v -68.11 c 0,-0.17 0.13,-0.3 0.29,-0.3 h 17.61 c 0.16,0 0.29,-0.13 0.29,-0.29 v -42.87 c 0,-0.16 -0.13,-0.29 -0.29,-0.29 h -17.61 c -0.16,0 -0.29,-0.13 -0.29,-0.29 v -15.48 c 0,-0.16 0.13,-0.29 0.29,-0.29 h 18.56 c 0.16,0 0.29,-0.13 0.29,-0.29 l -0.78,-228.28 h -25.55 v -25.27 h 25.47 116.28 v 25.27 266.29 h 5.95 v 0.07 h 91.95 v -0.07 h 3.77 V 159.22 h 46.35 v 293.05 h 97.19 V 159.22 h 52.63 v 331.61 h 78.94 78.94 V 159.22 h 52.63 v 293.05 h 97.19 V 159.22 h 46.35 v 291.56 h 3.77 v 0.07 h 91.94 v -0.07 h 5.95 V 184.49 159.22 h 116.29 25.46 v 25.27 H 2465"
         style="fill:#5d5d5d;fill-opacity:1;fill-rule:nonzero;stroke:none"
         id="path72" /><path
         d="m 2778.87,296.43 h -14.97 v 42.24 h -61.59 v 30.8 h -25.82 v 386.41 h 10.1 v 24.32 h -16.5 c 0.35,0.57 0.71,1.07 1.28,1.49 3.27,2.49 8.11,1.85 11.8,2.35 5.05,0.68 12.27,4.88 12.77,10.57 0.58,6.47 -6.58,9.37 -9.86,14.09 -5.41,7.8 -13.73,28.41 -4.68,36.04 8.14,6.86 21.59,-4.01 25.46,9.56 3.26,11.45 -17.04,15.95 -23.84,17.44 -1.03,11.14 1.22,20.65 -1.62,31.93 -0.98,4.09 -1.86,8.18 -4.04,11.72 -2.4,-4.21 -3.58,-10.19 -3.36,-15.32 0.27,-6.42 7.86,-27.05 -5.48,-27.06 0.07,0.29 0.15,0.64 0.15,1.14 0,7.96 2.78,22.03 -10.11,19.78 -8.48,-1.48 -8.69,-9.58 -7.62,-16.64 -7.66,0.52 -10.64,6.74 -12.87,13 -1.13,3.18 -1.53,8.68 -3.78,11.28 -0.04,0.05 -6.2,6.64 -6.39,3.7 -0.66,-10.57 10.09,-22.04 0.04,-30.82 -7.12,-6.22 -24.1,-6.59 -18.84,-21.94 3.59,-10.44 17.6,-2.72 23.72,-10.01 7.07,-8.39 -0.31,-27.11 -2.93,-35.87 -1.19,-3.96 -3.59,-10.61 -1.66,-14.67 2.54,-5.33 8.9,-6 11.99,-11.76 h -17.64 v -24.32 h 10.1 V 369.47 h -25.82 v -30.8 h -61.66 v -42.24 h -14.97 V 243.1 h 14.97 v -90.55 h 218.7 v 90.55 h 14.97 v 53.33"
         style="fill:#5d5d5d;fill-opacity:1;fill-rule:nonzero;stroke:none"
         id="path74" /><path
         d="m 2924.41,172.4 h 1021.73 v 240.81 h 20.81 v 52.78 h -22.52 v 17.78 h -17.15 v 195.05 h 20.12 v 36.55 h -29.5 c -8.01,35.31 -36.54,61.68 -70.89,62.62 v 6.19 c 5.56,0.94 9.79,5.72 9.79,11.51 0,5.88 -4.23,10.65 -9.79,11.59 v 12.61 h -3.91 v -12.61 c -5.56,-0.94 -9.79,-5.71 -9.79,-11.59 0,-5.79 4.23,-10.57 9.79,-11.51 v -6.19 c -34.36,-0.94 -62.88,-27.31 -70.9,-62.62 h -29.49 v -36.55 h 20.12 V 483.77 h -121.86 v 103.61 h 8.77 v 30.39 h -9.79 v 9.78 h -9.47 c 0,0.16 0,0.32 -0.08,0.4 -0.08,2.03 -0.08,3.99 -0.24,6.03 -0.37,4.92 -3.5,12.84 -1.07,17.6 0.81,1.6 3.1,1.14 3.71,2.92 1.11,3.22 -2.09,4.55 -3.1,7.04 -1.03,2.5 -0.78,4.13 -0.63,6.83 0.22,4.21 1.4,10.02 -5.02,8.6 -4.73,-1.6 -3.29,-5.01 -4.2,-8.75 -1.25,-5.16 -3.91,-2.87 -6,-6.65 -1.91,-3.47 0.55,-9.31 4.79,-8.6 0.31,-6.24 1.26,-12.19 0.79,-18.45 -0.15,-2.11 -0.47,-4.62 -0.62,-6.97 h -13.75 v 4.86 h 8.03 v 13.7 h -8.03 v 17.63 h 5.06 v 8.3 h -12.61 c -4.62,83.4 -60.62,151.45 -133.61,166.25 v 42.61 c 0,8.06 -6.57,14.64 -14.64,14.64 h -30.7 c -8.07,0 -14.64,-6.58 -14.64,-14.64 v -42.61 c -72.99,-14.8 -128.98,-82.85 -133.61,-166.25 h -11.59 v -8.3 h 5.02 v -17.63 h -7.99 v -13.7 h 7.99 v -4.86 h -13.79 c -0.07,2.35 -0.39,4.86 -0.54,6.97 -0.36,4.79 -1.65,9.82 -0.15,14.55 7.29,0.22 3.39,9.15 1.75,12.96 -1.31,3.05 -1.91,5.02 -2.44,8.14 -0.53,3.04 0.17,5.9 -3.87,6.8 -9.18,2.06 -3.07,-9.98 -5.34,-13.82 -1.44,-2.44 -0.26,-0.49 -2.46,-1.78 -2.28,-1.34 -5.95,0.16 -7.63,-3.14 -2.76,-5.41 5.42,-7.64 9.55,-6.73 1.31,-6.39 0.02,-11.21 -0.22,-17.52 -0.08,-2.04 -0.16,-4 -0.24,-6.03 v -0.4 h -9.55 v -9.78 h -9.79 v -30.39 h 8.85 V 483.77 h -121.86 v 195.05 h 23.08 v 36.55 h -32.45 c -8.02,35.31 -36.54,61.68 -70.9,62.62 v 6.19 c 5.49,0.94 9.79,5.72 9.79,11.51 0,5.88 -4.3,10.65 -9.79,11.59 v 12.61 h -3.91 v -12.61 c -5.56,-0.94 -9.79,-5.71 -9.79,-11.59 0,-5.79 4.23,-10.57 9.79,-11.51 v -6.19 c -34.42,-0.94 -62.95,-27.31 -70.97,-62.62 h -26.45 v -36.55 h 17.15 V 483.77 h -17.15 v -17.78 h -22.52 v -52.78 h 22.52 V 172.4"
         style="fill:#5d5d5d;fill-opacity:1;fill-rule:nonzero;stroke:none"
         id="path76" /></g></g></svg>
