<?xml version="1.0" encoding="UTF-8"?>
<svg version="1.1" xmlns="http://www.w3.org/2000/svg" xmlns:xlink="http://www.w3.org/1999/xlink">
    <title>LOGO-iceyisaak</title>
    <g id="Symbols" stroke="none" stroke-width="1" fill-rule="evenodd">
        <g id="LOGO-iceyisaak">
            <path d="M86.4181192,12.0668672 L86.5470904,12.5804981 C86.7691287,13.4475045 87.0265987,14.3692857 87.3195003,15.3458416 C87.6709822,16.5177088 88.0621475,17.7233798 88.4929963,18.9628546 C88.9238451,20.2023295 89.3887083,21.4418044 89.8875858,22.6812792 C90.3864634,23.9207541 90.9080172,25.1151571 91.4522472,26.2644884 C92.3139448,23.8982182 93.0622612,21.5544839 93.6971962,19.2332855 C94.2051443,17.3763268 94.6913231,15.4760992 95.1557328,13.5326026 L95.4999583,12.0668672 L98.7653386,12.0668672 L98.4549574,13.303085 C97.7208137,16.17342 96.9172241,18.9445442 96.0441883,21.6164576 C95.0464332,24.670073 93.9693113,27.5264991 92.8128224,30.1857361 C92.3592973,31.1998519 91.8887651,32.0731183 91.4012257,32.8055352 C90.9136863,33.5379522 90.3751253,34.1407877 89.7855427,34.6140417 C89.1959601,35.0872958 88.5326798,35.4366023 87.7957016,35.6619614 C87.0587234,35.8873205 86.2253711,36 85.2956447,36 C85.046206,36 84.7854291,35.9830981 84.513314,35.9492942 C84.241199,35.9154904 83.974753,35.8704185 83.7139761,35.8140788 C83.4531992,35.757739 83.2150986,35.6957653 82.9996742,35.6281575 L82.8779027,35.5889451 L82.8779027,35.5889451 L82.6792587,35.518633 C82.6511402,35.5078158 82.625516,35.4974493 82.6023863,35.4875335 L82.5404801,35.4591382 L83.1187245,32.9238488 L83.2772315,32.9907804 C83.5003658,33.0791212 83.7706668,33.1638562 84.0881343,33.2449854 C84.4849687,33.346397 84.8761341,33.3971028 85.2616304,33.3971028 C86.5088242,33.3971028 87.4839031,33.1210379 88.1868669,32.5689082 C88.8898307,32.0167785 89.5247658,31.1209762 90.0916721,29.8815014 C88.6630682,27.1771926 87.3308384,24.3094985 86.0949826,21.278419 C84.9964442,18.5841262 84.0636384,15.8586726 83.2965651,13.1020583 L83.0166814,12.0668672 L86.4181192,12.0668672 Z M4.55624882,22.7902596 L10.9034581,29.0106083 L6.98441765,32.8513195 C6.13681246,33.6819837 4.68745985,33.6220483 3.67188366,32.7419296 L3.53618195,32.6168363 L0.876473746,30.0102872 C-0.0975287108,29.055752 -0.237886863,27.6299816 0.527251965,26.7478032 L0.637208411,26.6309708 L4.55624882,22.7902596 Z M25.9728529,16.8354686 L28.8866426,19.6910209 L25.5402605,22.9705166 L25.7335418,23.1599348 L29.0799264,19.8804417 L31.0733897,21.8340619 L27.7269884,25.1135388 L27.9202697,25.3029569 L31.2666735,22.0234826 L33.3598384,24.0748118 C34.148918,24.8481202 34.1944229,26.0719472 33.4919473,26.8833582 L33.3748135,27.0079227 L27.5587343,32.707757 C26.7775117,33.4733654 25.5291183,33.5057158 24.6940877,32.809126 L24.5658042,32.6930811 L17.1788187,25.453738 L25.9728529,16.8354686 Z M180.603933,25.5546073 C181.306897,25.5546073 181.862465,25.7799664 182.270638,26.2306845 C182.67881,26.6814026 182.882897,27.2109964 182.882897,27.8194659 C182.882897,28.4279354 182.67881,28.9575292 182.270638,29.4082473 C181.862465,29.8589655 181.306897,30.0843245 180.603933,30.0843245 C179.900969,30.0843245 179.345401,29.8589655 178.937229,29.4082473 C178.529056,28.9575292 178.32497,28.4279354 178.32497,27.8194659 C178.32497,27.2109964 178.529056,26.6814026 178.937229,26.2306845 C179.345401,25.7799664 179.900969,25.5546073 180.603933,25.5546073 Z M210.196442,11.6274171 C211.398284,11.6274171 212.50942,11.8471421 213.529852,12.2865923 C214.550283,12.7260425 215.428988,13.3514139 216.165966,14.1627065 C216.902944,14.9739992 217.475519,15.9486771 217.883692,17.0867404 C218.291865,18.2248037 218.495951,19.4811805 218.495951,20.8558708 C218.495951,22.253097 218.291865,23.5151078 217.883692,24.6419031 C217.475519,25.7686984 216.902944,26.7377424 216.165966,27.549035 C215.428988,28.3603277 214.550283,28.9856991 213.529852,29.4251493 C212.50942,29.8645994 211.398284,30.0843245 210.196442,30.0843245 C208.994601,30.0843245 207.883465,29.8645994 206.863033,29.4251493 C205.842602,28.9856991 204.963897,28.3603277 204.226919,27.549035 C203.489941,26.7377424 202.917365,25.7686984 202.509193,24.6419031 C202.10102,23.5151078 201.896934,22.253097 201.896934,20.8558708 C201.896934,19.4811805 202.10102,18.2248037 202.509193,17.0867404 C202.917365,15.9486771 203.489941,14.9739992 204.226919,14.1627065 C204.963897,13.3514139 205.842602,12.7260425 206.863033,12.2865923 C207.883465,11.8471421 208.994601,11.6274171 210.196442,11.6274171 Z M73.2545548,11.6274171 C75.6355613,11.6274171 77.4609996,12.365468 78.7308697,13.8415699 C79.9455281,15.2534934 80.5792629,17.371613 80.6320741,20.1959287 L80.6356749,20.5854399 L80.6356749,21.1093997 L80.6318955,21.3178569 L80.6205574,21.5150461 L80.6205574,21.5150461 L80.6016605,21.7009673 L68.4925418,21.7009673 L68.522703,22.0380816 C68.6967609,23.6979039 69.2195991,24.9714907 70.0912176,25.858842 C71.0209439,26.8053501 72.4722241,27.2786042 74.445058,27.2786042 C75.5561944,27.2786042 76.4915898,27.1828266 77.2512442,26.9912714 C77.9159419,26.8236605 78.4374071,26.6603633 78.8156399,26.5013795 L78.9689703,26.4335077 L79.4111573,29.0702087 L79.2868347,29.1313937 C78.8878461,29.3159628 78.2546684,29.5096589 77.3873017,29.7124821 C76.423561,29.9378411 75.3294318,30.0505207 74.1049142,30.0505207 C72.5629291,30.0505207 71.2306992,29.8195276 70.1082248,29.3575415 C68.9857503,28.8955555 68.061693,28.2589161 67.3360529,27.4476235 C66.6104128,26.6363308 66.0718518,25.6729208 65.7203699,24.5573934 C65.368888,23.4418661 65.1931471,22.2192931 65.1931471,20.8896747 C65.1931471,19.3346971 65.4199096,17.9769087 65.8734346,16.8163095 C66.3269597,15.6557104 66.9278804,14.6923004 67.6761967,13.9260795 C68.424513,13.1598587 69.2862106,12.5851931 70.2612895,12.2020827 C71.2363683,11.8189723 72.2341234,11.6274171 73.2545548,11.6274171 Z M116.078657,11.6274171 C116.577535,11.6274171 117.076412,11.6555869 117.57529,11.7119267 C118.074167,11.7682665 118.539031,11.8358742 118.969879,11.9147499 C119.400728,11.9936255 119.780555,12.0781352 120.109361,12.1682788 L120.468553,12.2710426 C120.522522,12.2872684 120.573544,12.3030435 120.621618,12.318368 L120.874685,12.4049058 L120.29644,15.1092146 L120.159851,15.0413428 C119.820062,14.882359 119.332699,14.7190617 118.697764,14.5514509 C117.972124,14.3598957 117.099089,14.2641181 116.078657,14.2641181 C115.194283,14.2641181 114.423291,14.4387714 113.76568,14.788078 C113.108068,15.1373845 112.779263,15.6838802 112.779263,16.4275652 C112.779263,16.8106756 112.85296,17.1487142 113.000356,17.441681 C113.147752,17.7346477 113.374514,17.9994446 113.680644,18.2360717 C113.986773,18.4726987 114.3666,18.6924238 114.820125,18.8952469 C115.046888,18.9966585 115.296327,19.1008871 115.568442,19.2079326 L116.142907,19.4257797 C116.24369,19.4627136 116.346993,19.4999604 116.452815,19.5375203 C117.291837,19.853023 118.040153,20.1628917 118.697764,20.4671264 C119.355376,20.7713611 119.916613,21.1263017 120.381476,21.531948 C120.846339,21.9375943 121.20349,22.4277503 121.452929,23.0024159 C121.702368,23.5770815 121.827087,24.2813286 121.827087,25.1151571 C121.827087,26.7377424 121.220497,27.9659493 120.007318,28.7997779 C118.794138,29.6336064 117.065074,30.0505207 114.820125,30.0505207 C113.255464,30.0505207 112.030946,29.9209392 111.146572,29.6617763 L110.486244,29.4635627 L110.486244,29.4635627 L110.116302,29.3467858 L110.116302,29.3467858 L109.666806,29.1946684 L109.666806,29.1946684 L109.43742,29.1086222 L109.43742,29.1086222 L109.34381,29.0702087 L109.922055,26.3658999 L110.533474,26.586251 L110.533474,26.586251 L111.656788,26.9743694 L111.656788,26.9743694 C112.450457,27.2448003 113.504903,27.3800157 114.820125,27.3800157 C116.112672,27.3800157 117.070743,27.2109964 117.69434,26.8729578 C118.317937,26.5349192 118.629736,25.9940575 118.629736,25.2503726 C118.629736,24.4841517 118.323606,23.8756823 117.711347,23.4249641 C117.146185,23.0089166 116.242892,22.5448636 115.001468,22.0328052 L114.684068,21.9037904 C114.00378,21.6333596 113.351838,21.3572947 112.728241,21.0755959 C112.104644,20.7938971 111.566083,20.4614924 111.112558,20.078382 C110.659033,19.6952716 110.296213,19.2332855 110.024098,18.6924238 C109.751983,18.151562 109.615925,17.4867528 109.615925,16.697996 C109.615925,15.1430185 110.19417,13.9091776 111.350659,12.9964734 C112.507148,12.0837692 114.083147,11.6274171 116.078657,11.6274171 Z M57.8460413,11.6274171 C58.6397101,11.6274171 59.433379,11.6950248 60.2270478,11.8302402 C60.8619829,11.9384126 61.4751487,12.0970654 62.0665454,12.3061986 L62.5060112,12.4725136 L61.7917092,15.1430185 L61.4971447,15.0132117 C61.0926004,14.8473474 60.6408894,14.7103291 60.1420119,14.6021567 C59.5184149,14.4669413 58.8551345,14.3993336 58.1521707,14.3993336 C56.383423,14.3993336 55.028517,14.9514633 54.0874525,16.0557227 C53.146388,17.1599821 52.6758558,18.7712994 52.6758558,20.8896747 C52.6758558,21.8361827 52.783568,22.7038151 52.9989924,23.4925719 C53.2144168,24.2813286 53.5545606,24.9574058 54.0194237,25.5208035 C54.4842869,26.0842011 55.0795385,26.5180173 55.8051786,26.8222521 C56.5308187,27.1264868 57.4151925,27.2786042 58.4583001,27.2786042 C59.2973215,27.2786042 60.0569759,27.1997285 60.7372635,27.0419771 C61.3203671,26.9067617 61.7951801,26.7632678 62.1617024,26.6114953 L62.3359393,26.5349192 L62.7781262,29.1716203 L62.6597562,29.238552 C62.4892307,29.3268927 62.2679105,29.4116277 61.9957955,29.492757 C61.6556517,29.5941686 61.2701554,29.6843122 60.8393066,29.7631879 C60.4084578,29.8420635 59.9492637,29.9096713 59.4617243,29.966011 C58.9741849,30.0223508 58.5036526,30.0505207 58.0501276,30.0505207 C56.6215237,30.0505207 55.3686607,29.8251616 54.2915388,29.3744435 C53.2144168,28.9237253 52.3073667,28.29272 51.5703885,27.4814273 C50.8334103,26.6701347 50.2835112,25.7067247 49.9206911,24.5911973 C49.5578711,23.4756699 49.3764611,22.241829 49.3764611,20.8896747 C49.3764611,19.5375203 49.5748783,18.2980454 49.9717127,17.1712501 C50.3685471,16.0444547 50.9297844,15.0697768 51.6554244,14.2472162 C52.3810645,13.4246556 53.2711074,12.7823823 54.3255531,12.3203962 C55.3799989,11.8584101 56.5534949,11.6274171 57.8460413,11.6274171 Z M194.992015,11.6274171 C195.785684,11.6274171 196.579353,11.6950248 197.373022,11.8302402 C198.007957,11.9384126 198.621123,12.0970654 199.212519,12.3061986 L199.651985,12.4725136 L198.937683,15.1430185 L198.643119,15.0132117 C198.238574,14.8473474 197.786863,14.7103291 197.287986,14.6021567 C196.664389,14.4669413 196.001109,14.3993336 195.298145,14.3993336 C193.529397,14.3993336 192.174491,14.9514633 191.233426,16.0557227 C190.292362,17.1599821 189.82183,18.7712994 189.82183,20.8896747 C189.82183,21.8361827 189.929542,22.7038151 190.144966,23.4925719 C190.360391,24.2813286 190.700535,24.9574058 191.165398,25.5208035 C191.630261,26.0842011 192.225513,26.5180173 192.951153,26.8222521 C193.676793,27.1264868 194.561167,27.2786042 195.604274,27.2786042 C196.443295,27.2786042 197.20295,27.1997285 197.883237,27.0419771 C198.466341,26.9067617 198.941154,26.7632678 199.307676,26.6114953 L199.481913,26.5349192 L199.9241,29.1716203 L199.80573,29.238552 C199.635205,29.3268927 199.413885,29.4116277 199.141769,29.492757 C198.801626,29.5941686 198.416129,29.6843122 197.985281,29.7631879 C197.554432,29.8420635 197.095238,29.9096713 196.607698,29.966011 C196.120159,30.0223508 195.649627,30.0505207 195.196102,30.0505207 C193.767498,30.0505207 192.514635,29.8251616 191.437513,29.3744435 C190.360391,28.9237253 189.453341,28.29272 188.716362,27.4814273 C187.979384,26.6701347 187.429485,25.7067247 187.066665,24.5911973 C186.703845,23.4756699 186.522435,22.241829 186.522435,20.8896747 C186.522435,19.5375203 186.720852,18.2980454 187.117687,17.1712501 C187.514521,16.0444547 188.075758,15.0697768 188.801398,14.2472162 C189.527039,13.4246556 190.417081,12.7823823 191.471527,12.3203962 C192.525973,11.8584101 193.699469,11.6274171 194.992015,11.6274171 Z M149.344719,11.6274171 C150.61459,11.6274171 151.686042,11.7908024 152.559078,12.117573 C153.432114,12.4443437 154.135078,12.9063298 154.66797,13.5035313 C155.200862,14.1007328 155.580689,14.8106139 155.807451,15.6331744 C156.001819,16.3382264 156.112887,17.105367 156.140653,17.9345964 L156.147595,18.3543852 L156.147595,29.3406396 L155.008113,29.5265608 L155.008113,29.5265608 C154.520574,29.6054365 153.970675,29.6786782 153.358416,29.7462859 C152.746157,29.8138937 152.082877,29.8758674 151.368575,29.9322072 C150.654273,29.9885469 149.94564,30.0167168 149.242676,30.0167168 C148.244921,30.0167168 147.326533,29.9153052 146.487512,29.7124821 C145.64849,29.5096589 144.92285,29.1885222 144.310591,28.7490721 C143.698333,28.3096219 143.222131,27.7293223 142.881987,27.0081733 C142.541844,26.2870243 142.371772,25.4193919 142.371772,24.4052761 C142.371772,23.4362321 142.570189,22.6024036 142.967023,21.9037904 C143.363858,21.2051773 143.902419,20.6417797 144.582706,20.2135975 C145.262994,19.7854152 146.056663,19.4699125 146.963713,19.2670894 C147.870763,19.0642662 148.823166,18.9628546 149.820921,18.9628546 C150.138388,18.9628546 150.467194,18.9797566 150.807338,19.0135604 C151.147481,19.0473643 151.470618,19.0924361 151.776747,19.1487759 L152.815547,19.3495708 L152.815547,19.3495708 L153.052287,19.4023048 L153.052287,18.5234045 L153.045484,18.213085 C153.027343,17.8002272 152.97292,17.3909752 152.882215,16.9853288 C152.768834,16.4782709 152.564747,16.0275528 152.269956,15.6331744 C151.975165,15.2387961 151.572661,14.9232934 151.062446,14.6866664 C150.55223,14.4500394 149.888949,14.3317258 149.072604,14.3317258 C148.029497,14.3317258 147.116778,14.4049675 146.334447,14.5514509 L145.842288,14.6499412 L145.842288,14.6499412 L145.40892,14.7501008 C145.341591,14.7669332 145.276712,14.7838351 145.214282,14.8008066 L144.869099,14.9034701 C144.816468,14.9207198 144.766286,14.9380391 144.718554,14.9554279 L144.582706,15.007803 L144.208548,12.4049058 L144.339163,12.3509887 C144.66298,12.2255764 145.120134,12.1029247 145.710623,11.9830337 L146.249411,11.880946 L146.249411,11.880946 C147.201814,11.7119267 148.233583,11.6274171 149.344719,11.6274171 Z M131.589214,11.6274171 C132.859084,11.6274171 133.930537,11.7908024 134.803573,12.117573 C135.676608,12.4443437 136.379572,12.9063298 136.912464,13.5035313 C137.445356,14.1007328 137.825183,14.8106139 138.051946,15.6331744 C138.246314,16.3382264 138.357381,17.105367 138.385148,17.9345964 L138.39209,18.3543852 L138.39209,29.3406396 L137.252608,29.5265608 L137.252608,29.5265608 C136.765068,29.6054365 136.215169,29.6786782 135.602911,29.7462859 C134.990652,29.8138937 134.327371,29.8758674 133.613069,29.9322072 C132.898767,29.9885469 132.190135,30.0167168 131.487171,30.0167168 C130.489416,30.0167168 129.571027,29.9153052 128.732006,29.7124821 C127.892985,29.5096589 127.167345,29.1885222 126.555086,28.7490721 C125.942827,28.3096219 125.466626,27.7293223 125.126482,27.0081733 C124.786338,26.2870243 124.616266,25.4193919 124.616266,24.4052761 C124.616266,23.4362321 124.814683,22.6024036 125.211518,21.9037904 C125.608352,21.2051773 126.146913,20.6417797 126.827201,20.2135975 C127.507488,19.7854152 128.301157,19.4699125 129.208207,19.2670894 C130.115257,19.0642662 131.06766,18.9628546 132.065415,18.9628546 C132.382883,18.9628546 132.711688,18.9797566 133.051832,19.0135604 C133.391976,19.0473643 133.715112,19.0924361 134.021242,19.1487759 L135.060041,19.3495708 L135.060041,19.3495708 L135.296781,19.4023048 L135.296781,18.5234045 L135.289978,18.213085 C135.271837,17.8002272 135.217414,17.3909752 135.126709,16.9853288 C135.013328,16.4782709 134.809242,16.0275528 134.51445,15.6331744 C134.219659,15.2387961 133.817156,14.9232934 133.30694,14.6866664 C132.796724,14.4500394 132.133444,14.3317258 131.317099,14.3317258 C130.273991,14.3317258 129.361272,14.4049675 128.578941,14.5514509 L128.086783,14.6499412 L128.086783,14.6499412 L127.653414,14.7501008 C127.586085,14.7669332 127.521206,14.7838351 127.458776,14.8008066 L127.113594,14.9034701 C127.060962,14.9207198 127.010781,14.9380391 126.963048,14.9554279 L126.827201,15.007803 L126.453043,12.4049058 L126.583658,12.3509887 C126.907475,12.2255764 127.364628,12.1029247 127.955118,11.9830337 L128.493905,11.880946 L128.493905,11.880946 C129.446308,11.7119267 130.478077,11.6274171 131.589214,11.6274171 Z M44.9205775,12.0668672 L44.9205775,29.6448744 L41.7572403,29.6448744 L41.7572403,12.0668672 L44.9205775,12.0668672 Z M164.549147,3.41307912 L164.549147,19.4361087 L166.351909,17.6445041 L167.005741,16.9872068 C167.439109,16.5465047 167.867438,16.1007945 168.290728,15.6500764 L169.21762,14.657088 L169.21762,14.657088 L170.37033,13.4025892 L170.37033,13.4025892 L170.884325,12.8316796 L170.884325,12.8316796 L171.345408,12.3095977 L171.345408,12.3095977 L171.556109,12.0668672 L175.263676,12.0668672 L173.92487,13.527194 L173.92487,13.527194 L173.562957,13.9260795 C172.950698,14.6021567 172.315763,15.2838679 171.658152,15.971213 L170.667483,17.0022308 L170.667483,17.0022308 L167.780513,19.9769704 L167.780513,19.9769704 C168.4608,20.4952963 169.180771,21.1375696 169.940426,21.9037904 C170.70008,22.6700113 171.448396,23.4982058 172.185375,24.3883741 C172.922353,25.2785425 173.619648,26.1799787 174.277259,27.0926829 C174.840926,27.8750008 175.329622,28.611787 175.743348,29.3030414 L175.943963,29.6448744 L172.236396,29.6448744 L171.941832,29.1695921 C171.537287,28.5331781 171.085576,27.8859468 170.586699,27.2278984 C169.963102,26.4053378 169.31116,25.6165811 168.630872,24.8616282 C167.950584,24.1066753 167.258959,23.4136962 166.555995,22.7826908 C165.970192,22.256853 165.40801,21.8014399 164.869449,21.4164515 L164.549147,21.1939094 L164.549147,29.6448744 L161.385809,29.6448744 L161.385809,3.95394088 L164.549147,3.41307912 Z M105.262085,12.0668672 L105.262085,29.6448744 L102.098748,29.6448744 L102.098748,12.0668672 L105.262085,12.0668672 Z M240.401211,11.6950248 C241.761786,11.6950248 242.872922,11.892214 243.73462,12.2865923 C244.596317,12.6809707 245.270936,13.2387344 245.758475,13.9598834 C246.246015,14.6810324 246.57482,15.5373968 246.744892,16.5289767 C246.890668,17.3789024 246.973969,18.2950559 246.994794,19.2774375 L247,19.7741473 L247,29.6448744 L243.836663,29.6448744 L243.836663,20.4502245 L243.834271,20.0683465 C243.82311,19.1933195 243.772886,18.4304439 243.683598,17.7797195 C243.581555,17.0360346 243.388807,16.4162972 243.105354,15.9205073 C242.821901,15.4247173 242.436404,15.0585088 241.948865,14.8218818 C241.461325,14.5852548 240.832059,14.4669413 240.061067,14.4669413 C238.995283,14.4669413 238.116578,14.6077907 237.424952,14.8894895 C236.733327,15.1711884 236.262795,15.4247173 236.013356,15.6500764 C236.194766,16.23601 236.330823,16.8782833 236.421528,17.5768964 C236.494092,18.1357869 236.537631,18.7163118 236.552144,19.3184712 L236.557586,19.7741473 L236.557586,29.6448744 L233.394249,29.6448744 L233.394249,20.4502245 L233.391591,20.0683465 C233.37919,19.1933195 233.323385,18.4304439 233.224177,17.7797195 C233.110795,17.0360346 232.912378,16.4162972 232.628925,15.9205073 C232.345472,15.4247173 231.959976,15.0585088 231.472436,14.8218818 C230.984897,14.5852548 230.366969,14.4669413 229.618653,14.4669413 C229.301185,14.4669413 228.961041,14.4782092 228.598221,14.5007451 C228.235401,14.5232811 227.889588,14.5514509 227.560783,14.5852548 C227.231977,14.6190587 226.931517,14.6584965 226.659402,14.7035683 L226.236112,14.778688 L226.236112,14.778688 L226.115172,14.8049799 L226.115172,29.6448744 L222.951834,29.6448744 L222.951834,12.5739251 L223.202323,12.5134121 C223.375054,12.4727918 223.559264,12.4316151 223.754952,12.3898819 L224.376449,12.2630131 L224.376449,12.2630131 L225.066815,12.1328056 L225.066815,12.1328056 L225.826049,11.9992595 L225.826049,11.9992595 C227.016553,11.7964364 228.394135,11.6950248 229.958796,11.6950248 C231.092609,11.6950248 232.045012,11.8471421 232.816004,12.1513769 C233.586997,12.4556116 234.23327,12.9006958 234.754824,13.4866294 L234.943793,13.3589259 L234.943793,13.3589259 L235.193231,13.2011745 L235.193231,13.2011745 L235.50314,13.0133753 L235.50314,13.0133753 C235.843284,12.8105522 236.262795,12.613363 236.761672,12.4218078 C237.26055,12.2302526 237.816118,12.0612333 238.428377,11.9147499 C239.040635,11.7682665 239.698247,11.6950248 240.401211,11.6950248 Z M20.8561369,6.79936656 L27.2033461,13.0197152 L11.383775,28.5231033 L5.03656576,22.3027547 L20.8561369,6.79936656 Z M132.33753,21.4981441 C131.861329,21.4981441 131.356782,21.531948 130.82389,21.5995557 C130.290998,21.6671634 129.803459,21.8080128 129.361272,22.022104 C128.919085,22.2361951 128.550596,22.5291619 128.255805,22.9010043 C127.961013,23.2728468 127.813618,23.7630027 127.813618,24.3714722 C127.813618,25.4982675 128.176438,26.2813903 128.902078,26.7208405 C129.627718,27.1602907 130.614135,27.3800157 131.861329,27.3800157 C132.609645,27.3800157 133.272926,27.3631138 133.85117,27.32931 C134.33304,27.3011401 134.747984,27.2534078 135.096002,27.186113 L135.296781,27.1433887 L135.296781,21.9037904 L135.19092,21.856534 C134.961844,21.7640908 134.628642,21.6840654 134.191314,21.6164576 C133.681098,21.537582 133.06317,21.4981441 132.33753,21.4981441 Z M150.093036,21.4981441 C149.616834,21.4981441 149.112288,21.531948 148.579396,21.5995557 C148.046504,21.6671634 147.558965,21.8080128 147.116778,22.022104 C146.674591,22.2361951 146.306102,22.5291619 146.01131,22.9010043 C145.716519,23.2728468 145.569123,23.7630027 145.569123,24.3714722 C145.569123,25.4982675 145.931943,26.2813903 146.657584,26.7208405 C147.383224,27.1602907 148.369641,27.3800157 149.616834,27.3800157 C150.365151,27.3800157 151.028431,27.3631138 151.606676,27.32931 C152.088546,27.3011401 152.50349,27.2534078 152.851507,27.186113 L153.052287,27.1433887 L153.052287,21.9037904 L152.946426,21.856534 C152.717349,21.7640908 152.384147,21.6840654 151.946819,21.6164576 C151.436604,21.537582 150.818676,21.4981441 150.093036,21.4981441 Z M210.196442,14.3993336 C208.654457,14.3993336 207.435609,14.9796332 206.539897,16.1402323 C205.644185,17.3008315 205.196329,18.872711 205.196329,20.8558708 C205.196329,22.8390306 205.644185,24.4109101 206.539897,25.5715092 C207.435609,26.7321084 208.654457,27.312408 210.196442,27.312408 C211.738428,27.312408 212.957276,26.7321084 213.852988,25.5715092 C214.7487,24.4109101 215.196556,22.8390306 215.196556,20.8558708 C215.196556,18.872711 214.7487,17.3008315 213.852988,16.1402323 C212.957276,14.9796332 211.738428,14.3993336 210.196442,14.3993336 Z M29.9491944,20.7927255 L24.596304,26.0386286 L24.7895853,26.2280468 L30.1424756,20.9821437 L29.9491944,20.7927255 Z M73.2205404,14.297922 C72.4949003,14.297922 71.8542962,14.4387714 71.298728,14.7204702 C70.7431598,15.0021691 70.2726276,15.3683775 69.8871313,15.8190957 C69.501635,16.2698138 69.2011747,16.7881397 68.9857503,17.3740732 C68.8134107,17.8428201 68.6882378,18.3187784 68.6102315,18.8019483 L68.5605705,19.1656778 L77.3362802,19.1656778 C77.3589564,17.7459157 77.0018055,16.5796825 76.2648273,15.6669783 C75.5278491,14.7542741 74.5130868,14.297922 73.2205404,14.297922 Z M6.42847445,0.600155367 C7.20969702,-0.165453043 8.45809049,-0.197803505 9.2931211,0.498786284 L9.42140451,0.614831191 L11.4462805,2.59923629 L8.26305454,5.71879443 L8.45633581,5.90821262 L11.6395643,2.788657 L13.906332,5.01011923 L10.7231234,8.12969433 L10.9164047,8.31911251 L14.0996159,5.19953994 L16.8083901,7.85417434 L8.01435588,16.4724437 L0.627370333,9.23310054 C-0.161709245,8.45979216 -0.20721412,7.23596512 0.49526146,6.42455409 L0.612395203,6.29998965 L6.42847445,0.600155367 Z M34.0314631,0.057358042 L27.5631239,12.42683 L21.4097226,6.39641566 L34.0314631,0.057358042 Z M12.673478,3.80742123 L7.12941298,9.240678 L7.32269424,9.43009618 L12.8667593,3.99683942 L12.673478,3.80742123 Z M32.3475579,1.8294401 L24.9352357,6.16455507 L27.9240306,9.09361348 L32.3475579,1.8294401 Z M43.3219017,4.76523351 C43.888808,4.76523351 44.3706784,4.95115474 44.7675128,5.3229972 C45.1643472,5.69483966 45.3627644,6.19626358 45.3627644,6.82726896 C45.3627644,7.45827435 45.1643472,7.95969827 44.7675128,8.33154073 C44.3706784,8.70338318 43.888808,8.88930441 43.3219017,8.88930441 C42.7549954,8.88930441 42.273125,8.70338318 41.8762906,8.33154073 C41.4794562,7.95969827 41.281039,7.45827435 41.281039,6.82726896 C41.281039,6.19626358 41.4794562,5.69483966 41.8762906,5.3229972 C42.273125,4.95115474 42.7549954,4.76523351 43.3219017,4.76523351 Z M103.663409,4.76523351 C104.230315,4.76523351 104.712186,4.95115474 105.10902,5.3229972 C105.505855,5.69483966 105.704272,6.19626358 105.704272,6.82726896 C105.704272,7.45827435 105.505855,7.95969827 105.10902,8.33154073 C104.712186,8.70338318 104.230315,8.88930441 103.663409,8.88930441 C103.096503,8.88930441 102.614632,8.70338318 102.217798,8.33154073 C101.820964,7.95969827 101.622546,7.45827435 101.622546,6.82726896 C101.622546,6.19626358 101.820964,5.69483966 102.217798,5.3229972 C102.614632,4.95115474 103.096503,4.76523351 103.663409,4.76523351 Z M29.32445,4.67029292 L28.0006035,7.86295301 L26.0666773,5.96767993 L29.32445,4.67029292 Z"></path>
        </g>
    </g>
</svg>